<?xml version="1.0" encoding="UTF-8"?>
<!DOCTYPE svg PUBLIC "-//W3C//DTD SVG 1.1//EN" "http://www.w3.org/Graphics/SVG/1.1/DTD/svg11.dtd">
<!-- Creator: CorelDRAW X8 -->
<svg xmlns="http://www.w3.org/2000/svg" xml:space="preserve" width="400px" height="272px" version="1.1" style="shape-rendering:geometricPrecision; text-rendering:geometricPrecision; image-rendering:optimizeQuality; fill-rule:evenodd; clip-rule:evenodd"
viewBox="0 0 75 51"
 xmlns:xlink="http://www.w3.org/1999/xlink">
 <defs>
  <style type="text/css">
   <![CDATA[
    .fil0 {fill:black}
    .fil1 {fill:black;fill-rule:nonzero}
   ]]>
  </style>
 </defs>
 <g id="Layer_x0020_1">
  <metadata id="CorelCorpID_0Corel-Layer"/>
  <g id="_1839361523360">
   <path class="fil0" d="M26 0c9,0 17,5 22,13l-1 0c-5,-7 -12,-12 -21,-12 -14,0 -25,11 -25,25 0,13 11,24 25,24 9,0 16,-5 21,-12l1 0c-5,8 -13,13 -22,13 -15,0 -26,-11 -26,-25 0,-15 11,-26 26,-26z"/>
   <path class="fil0" d="M26 2c5,0 9,2 13,4l0 1 -27 0 0 0c4,-3 8,-5 14,-5z"/>
   <path class="fil0" d="M26 2c5,0 9,2 13,4l0 1 -27 0 0 0c4,-3 8,-5 14,-5z"/>
   <path class="fil1" d="M38 23l0 -5 1 0c0,0 1,0 2,1 0,0 0,1 0,2 0,1 0,1 0,2 -1,0 -2,0 -2,0l-1 0zm1 0c0,0 1,0 1,-1 0,0 1,-1 1,-1 0,-1 -1,-1 -1,-2 0,0 -1,0 -1,0l-1 0 0 4 1 0zm7 -5l2 5 0 0 -1 -1 -3 0 0 1 -1 0 3 -5zm0 1l-1 2 1 0 0 -2zm4 -1l0 5 1 0 0 -2 2 2 0 0 -1 -2c0,0 0,0 1,0 0,-1 0,-1 0,-1 0,-1 0,-1 -1,-1 0,-1 0,-1 -1,-1l-1 0zm1 1l0 0c1,0 1,0 1,0 0,0 0,0 0,1 0,0 0,0 0,0 0,1 0,1 -1,1l0 0 0 -2zm4 -1l1 0 0 3 2 -3 0 0 -2 3 2 2 0 1 -2 -3 0 2 -1 0 0 -5zm-17 9l0 5 0 0 0 -2 2 2 1 0 -2 -2c1,0 1,0 1,0 0,-1 1,-1 1,-2 0,0 -1,0 -1,-1 0,0 -1,0 -1,0l-1 0zm0 0l1 0c0,0 0,1 1,1 0,0 0,0 0,0 0,1 0,1 0,1 -1,0 -1,0 -1,0l-1 0 0 -2zm7 0c1,0 2,0 2,1 1,0 1,1 1,1 0,1 0,2 -1,2 0,1 -1,1 -2,1 0,0 -1,0 -2,-1 0,0 0,-1 0,-2 0,0 0,-1 0,-1 1,-1 2,-1 2,-1zm0 0c0,0 -1,1 -1,1 -1,0 -1,1 -1,1 0,1 0,2 1,2 0,0 1,1 1,1 1,0 1,-1 2,-1 0,0 0,-1 0,-2 0,0 0,-1 0,-1 -1,0 -1,-1 -2,-1zm7 0c1,0 2,0 2,1 1,0 1,1 1,1 0,1 0,2 -1,2 0,1 -1,1 -2,1 0,0 -1,0 -1,-1 -1,0 -1,-1 -1,-2 0,0 0,-1 1,-1 0,-1 1,-1 1,-1zm0 0c0,0 -1,1 -1,1 0,0 -1,1 -1,1 0,1 1,2 1,2 0,0 1,1 1,1 1,0 2,-1 2,-1 0,0 1,-1 1,-2 0,0 -1,-1 -1,-1 0,0 -1,-1 -2,-1zm6 0l-1 5 0 0 1 -3 2 3 1 -3 1 3 1 0 -1 -5 -2 4 -2 -4zm8 0l2 0c0,0 0,0 0,0 1,0 1,0 1,0 0,0 0,1 0,1 0,0 0,0 0,0 0,0 0,0 0,0 0,0 0,0 0,0 0,0 0,0 0,1 0,0 0,0 0,0 0,0 0,0 0,0 0,0 -1,0 -1,0 1,0 1,0 1,0 0,1 0,1 0,1 0,0 0,0 0,1 0,0 0,0 0,1 0,0 -1,0 -1,0l-2 0 0 -5zm1 3l0 2 1 0c0,0 0,-1 0,-1 1,0 1,0 1,0 0,-1 0,-1 -1,-1 0,0 0,0 0,0l-1 0zm0 -1l1 0c0,0 0,0 0,0 0,0 0,-1 0,-1 0,0 0,0 0,0 0,-1 0,-1 0,-1l-1 0 0 2zm4 -2l1 0 1 2 1 -2 1 0 -2 5 -1 0 1 -2 -2 -3zm-7 5c0,0 0,-1 0,-1 1,0 1,1 1,1 0,0 0,0 -1,0 0,0 0,0 0,0z"/>
   <path class="fil1" d="M38 23l0 -5 1 0c0,0 1,0 2,1 0,0 0,1 0,2 0,1 0,1 0,2 -1,0 -2,0 -2,0l-1 0zm1 0c0,0 1,0 1,-1 0,0 1,-1 1,-1 0,-1 -1,-1 -1,-2 0,0 -1,0 -1,0l-1 0 0 4 1 0zm7 -5l2 5 0 0 -1 -1 -3 0 0 1 -1 0 3 -5zm0 1l-1 2 1 0 0 -2zm4 -1l0 5 1 0 0 -2 2 2 0 0 -1 -2c0,0 0,0 1,0 0,-1 0,-1 0,-1 0,-1 0,-1 -1,-1 0,-1 0,-1 -1,-1l-1 0zm1 1l0 0c1,0 1,0 1,0 0,0 0,0 0,1 0,0 0,0 0,0 0,1 0,1 -1,1l0 0 0 -2zm4 -1l1 0 0 3 2 -3 0 0 -2 3 2 2 0 1 -2 -3 0 2 -1 0 0 -5zm-17 9l0 5 0 0 0 -2 2 2 1 0 -2 -2c1,0 1,0 1,0 0,-1 1,-1 1,-2 0,0 -1,0 -1,-1 0,0 -1,0 -1,0l-1 0zm0 0l1 0c0,0 0,1 1,1 0,0 0,0 0,0 0,1 0,1 0,1 -1,0 -1,0 -1,0l-1 0 0 -2zm7 0c1,0 2,0 2,1 1,0 1,1 1,1 0,1 0,2 -1,2 0,1 -1,1 -2,1 0,0 -1,0 -2,-1 0,0 0,-1 0,-2 0,0 0,-1 0,-1 1,-1 2,-1 2,-1zm0 0c0,0 -1,1 -1,1 -1,0 -1,1 -1,1 0,1 0,2 1,2 0,0 1,1 1,1 1,0 1,-1 2,-1 0,0 0,-1 0,-2 0,0 0,-1 0,-1 -1,0 -1,-1 -2,-1zm7 0c1,0 2,0 2,1 1,0 1,1 1,1 0,1 0,2 -1,2 0,1 -1,1 -2,1 0,0 -1,0 -1,-1 -1,0 -1,-1 -1,-2 0,0 0,-1 1,-1 0,-1 1,-1 1,-1zm0 0c0,0 -1,1 -1,1 0,0 -1,1 -1,1 0,1 1,2 1,2 0,0 1,1 1,1 1,0 2,-1 2,-1 0,0 1,-1 1,-2 0,0 -1,-1 -1,-1 0,0 -1,-1 -2,-1zm6 0l-1 5 0 0 1 -3 2 3 1 -3 1 3 1 0 -1 -5 -2 4 -2 -4zm8 0l2 0c0,0 0,0 0,0 1,0 1,0 1,0 0,0 0,1 0,1 0,0 0,0 0,0 0,0 0,0 0,0 0,0 0,0 0,0 0,0 0,0 0,1 0,0 0,0 0,0 0,0 0,0 0,0 0,0 -1,0 -1,0 1,0 1,0 1,0 0,1 0,1 0,1 0,0 0,0 0,1 0,0 0,0 0,1 0,0 -1,0 -1,0l-2 0 0 -5zm1 3l0 2 1 0c0,0 0,-1 0,-1 1,0 1,0 1,0 0,-1 0,-1 -1,-1 0,0 0,0 0,0l-1 0zm0 -1l1 0c0,0 0,0 0,0 0,0 0,-1 0,-1 0,0 0,0 0,0 0,-1 0,-1 0,-1l-1 0 0 2zm4 -2l1 0 1 2 1 -2 1 0 -2 5 -1 0 1 -2 -2 -3zm-7 5c0,0 0,-1 0,-1 1,0 1,1 1,1 0,0 0,0 -1,0 0,0 0,0 0,0z"/>
   <path class="fil0" d="M15 11l21 0c0,0 0,0 0,1l0 1c0,0 0,0 0,0l-21 0c0,0 -1,0 -1,0l0 -1c0,-1 1,-1 1,-1z"/>
   <path class="fil0" d="M15 11l21 0c0,0 0,0 0,1l0 1c0,0 0,0 0,0l-21 0c0,0 -1,0 -1,0l0 -1c0,-1 1,-1 1,-1z"/>
   <path class="fil0" d="M13 8l25 0c0,0 0,0 0,1l0 1c0,0 0,0 0,0l-25 0c0,0 0,0 0,0l0 -1c0,-1 0,-1 0,-1z"/>
   <path class="fil0" d="M13 8l25 0c0,0 0,0 0,1l0 1c0,0 0,0 0,0l-25 0c0,0 0,0 0,0l0 -1c0,-1 0,-1 0,-1z"/>
   <path class="fil0" d="M16 14l18 0c1,0 1,0 1,1l0 1c0,0 0,0 -1,0l-18 0c0,0 0,0 0,0l0 -1c0,-1 0,-1 0,-1z"/>
   <path class="fil0" d="M16 14l18 0c1,0 1,0 1,1l0 1c0,0 0,0 -1,0l-18 0c0,0 0,0 0,0l0 -1c0,-1 0,-1 0,-1z"/>
   <path class="fil0" d="M18 17l15 0c1,0 1,0 1,1l0 1c0,0 0,0 -1,0l-15 0c-1,0 -1,0 -1,0l0 -1c0,-1 0,-1 1,-1z"/>
   <path class="fil0" d="M18 17l15 0c1,0 1,0 1,1l0 1c0,0 0,0 -1,0l-15 0c-1,0 -1,0 -1,0l0 -1c0,-1 0,-1 1,-1z"/>
   <path class="fil0" d="M19 20l13 0c0,0 0,0 0,0l0 2c0,0 0,0 0,0l-3 0 0 2c0,1 0,1 0,1l-7 0c0,0 0,0 0,-1l0 -2 -3 0c0,0 0,0 0,0l0 -2c0,0 0,0 0,0z"/>
   <path class="fil0" d="M19 20l13 0c0,0 0,0 0,0l0 2c0,0 0,0 0,0l-3 0 0 2c0,1 0,1 0,1l-7 0c0,0 0,0 0,-1l0 -2 -3 0c0,0 0,0 0,0l0 -2c0,0 0,0 0,0z"/>
   <path class="fil0" d="M29 26l7 11 5 6c-4,4 -10,6 -15,6 -6,0 -12,-2 -16,-6l4 -6 8 -11 7 0z"/>
   <path class="fil0" d="M29 26l7 11 5 6c-4,4 -10,6 -15,6 -6,0 -12,-2 -16,-6l4 -6 8 -11 7 0z"/>
  </g>
 </g>
</svg>
